HIERARCHY
ROOT Hips
{
	OFFSET 0.000000 0.000000 0.000000
	CHANNELS 6 Xposition Yposition Zposition Xrotation Yrotation Zrotation
	JOINT LeftUpLeg_virtual
	{
		OFFSET 0.000000 0.000000 0.000000
		CHANNELS 3 Xrotation Yrotation Zrotation
		JOINT LeftUpLeg
		{
			OFFSET 11.394100 -6.187798 -0.413800
			CHANNELS 3 Xrotation Yrotation Zrotation
			JOINT LeftLeg
			{
				OFFSET 0.430247 -32.302673 3.732800
				CHANNELS 3 Xrotation Yrotation Zrotation
				JOINT LeftFoot
				{
					OFFSET -0.430247 -48.264931 -6.423300
					CHANNELS 3 Xrotation Yrotation Zrotation
					JOINT LeftToeBase
					{
						OFFSET 4.230900 -16.068199 23.438400
						CHANNELS 3 Xrotation Yrotation Zrotation
						JOINT LeftToe_End
						{
							OFFSET 4.510700 0.695400 19.974600
							CHANNELS 3 Xrotation Yrotation Zrotation
							End Site
							{
								OFFSET 0 0 0
							}
						}
					}
				}
			}
		}
	}
	JOINT RightUpLeg_virtual
	{
		OFFSET 0.000000 0.000000 0.000000
		CHANNELS 3 Xrotation Yrotation Zrotation
		JOINT RightUpLeg
		{
			OFFSET -11.333700 -6.187798 -0.413800
			CHANNELS 3 Xrotation Yrotation Zrotation
			JOINT RightLeg
			{
				OFFSET -0.430392 -32.302628 3.733000
				CHANNELS 3 Xrotation Yrotation Zrotation
				JOINT RightFoot
				{
					OFFSET 0.430392 -48.264973 -6.423500
					CHANNELS 3 Xrotation Yrotation Zrotation
					JOINT RightToeBase
					{
						OFFSET -4.230900 -16.068199 23.438400
						CHANNELS 3 Xrotation Yrotation Zrotation
						JOINT RightToe_End
						{
							OFFSET -4.510700 0.695400 19.974600
							CHANNELS 3 Xrotation Yrotation Zrotation
							End Site
							{
								OFFSET 0 0 0
							}
						}
					}
				}
			}
		}
	}
	JOINT Spine_virtual
	{
		OFFSET 0.000000 0.000000 0.000000
		CHANNELS 3 Xrotation Yrotation Zrotation
		JOINT Spine
		{
			OFFSET -0.002400 12.777504 0.315300
			CHANNELS 3 Xrotation Yrotation Zrotation
			JOINT Spine1
			{
				OFFSET -0.002067 5.816869 0.032633
				CHANNELS 3 Xrotation Yrotation Zrotation
				JOINT Spine1_split
				{
					OFFSET -0.002067 5.816869 0.032633
					CHANNELS 3 Xrotation Yrotation Zrotation
					JOINT Spine2
					{
						OFFSET -0.002067 5.816869 0.032633
						CHANNELS 3 Xrotation Yrotation Zrotation
						JOINT Neck_virtual
						{
							OFFSET 0.000000 0.000000 0.000000
							CHANNELS 3 Xrotation Yrotation Zrotation
							JOINT Neck
							{
								OFFSET -0.003700 21.199493 -0.826900
								CHANNELS 3 Xrotation Yrotation Zrotation
								JOINT Head
								{
									OFFSET 0.000000 20.442200 4.834800
									CHANNELS 3 Xrotation Yrotation Zrotation
									JOINT HeadTop_End
									{
										OFFSET 0.000000 34.668396 4.968400
										CHANNELS 3 Xrotation Yrotation Zrotation
										End Site
										{
											OFFSET 0 0 0
										}
									}
								}
							}
						}
						JOINT LeftShoulder_virtual
						{
							OFFSET 0.000000 0.000000 0.000000
							CHANNELS 3 Xrotation Yrotation Zrotation
							JOINT LeftShoulder
							{
								OFFSET 3.288150 8.794197 -1.372250
								CHANNELS 3 Xrotation Yrotation Zrotation
								JOINT LeftShoulder_split
								{
									OFFSET 3.288150 8.794197 -1.372250
									CHANNELS 3 Xrotation Yrotation Zrotation
									JOINT LeftArm
									{
										OFFSET 11.953299 -2.279007 -0.146200
										CHANNELS 3 Xrotation Yrotation Zrotation
										JOINT LeftForeArm
										{
											OFFSET 18.448900 0.000000 0.000000
											CHANNELS 3 Xrotation Yrotation Zrotation
											JOINT LeftHand
											{
												OFFSET 29.527798 0.000000 0.000000
												CHANNELS 3 Xrotation Yrotation Zrotation
												End Site
												{
													OFFSET 0 0 0
												}
											}
										}
									}
								}
							}
						}
						JOINT RightShoulder_virtual
						{
							OFFSET 0.000000 0.000000 0.000000
							CHANNELS 3 Xrotation Yrotation Zrotation
							JOINT RightShoulder
							{
								OFFSET -3.249400 8.794197 -1.372250
								CHANNELS 3 Xrotation Yrotation Zrotation
								JOINT RightShoulder_split
								{
									OFFSET -3.249400 8.794197 -1.372250
									CHANNELS 3 Xrotation Yrotation Zrotation
									JOINT RightArm
									{
										OFFSET -11.953299 -2.279007 -0.146200
										CHANNELS 3 Xrotation Yrotation Zrotation
										JOINT RightForeArm
										{
											OFFSET -18.448900 0.000000 0.000000
											CHANNELS 3 Xrotation Yrotation Zrotation
											JOINT RightHand
											{
												OFFSET -29.527802 0.000000 0.000000
												CHANNELS 3 Xrotation Yrotation Zrotation
												End Site
												{
													OFFSET 0 0 0
												}
											}
										}
									}
								}
							}
						}
					}
				}
			}
		}
	}
}
MOTION
Frames: 6
Frame Time: 0.03333333
-1.894984 98.518661 -8.117308 0.000000 0.000000 0.000000 4.230101 -84.101328 5.304778 -19.555585 22.169025 14.423765 27.103336 -6.639937 -0.031755 -7.521608 1.976601 -8.345366 -2.528822 -0.341954 -1.135852 0.000000 0.000000 0.000000 2.673479 -82.074886 3.034527 -15.094718 -13.992481 -9.303460 25.401223 9.871482 -3.710655 -9.547834 -6.365748 11.022564 4.991905 -0.196517 -27.794058 0.000000 0.000000 0.000000 -16.705924 -81.531510 -15.671941 -6.083092 3.919768 3.020313 9.923325 -0.625880 2.082974 -0.022154 -0.069182 0.014039 0.000000 0.000000 0.000000 10.809304 1.408398 3.121155 -5.292004 11.527967 -3.047488 -4.109642 -37.389726 -8.389762 0.000000 0.000000 0.000000 9.905386 0.012126 2.244131 -0.055871 1.707828 -4.436719 8.674792 -4.861920 0.539854 37.083074 -78.140335 -27.462188 -3.176820 -13.901463 -0.590789 0.000000 0.000000 0.000000 10.313218 0.099597 3.045954 -9.760692 -1.796513 6.505605 4.477863 1.848757 2.596410 5.065609 32.580433 68.520389 -3.907584 20.695205 -6.828380 0.000000 0.000000 0.000000 
-1.960618 98.541016 -7.861506 0.000000 0.000000 0.000000 3.230743 -84.086227 4.357014 -19.536574 21.451770 14.392462 26.889924 -6.539950 -0.102404 -6.939870 2.374417 -8.084331 -2.571991 -0.292064 -1.372625 0.000000 0.000000 0.000000 3.745153 -82.052456 3.958017 -15.098266 -13.928246 -9.319577 25.500755 9.843572 -3.746377 -9.428158 -6.222222 11.132151 4.619650 -0.109954 -27.732831 0.000000 0.000000 0.000000 -16.904771 -81.629257 -15.866637 -5.794827 3.830280 2.901871 9.533879 -0.616162 2.138030 -0.010103 -0.127750 0.058086 0.000000 0.000000 0.000000 10.817214 1.484924 3.122028 -5.384270 11.514117 -2.962754 -4.922436 -37.206844 -8.827271 0.000000 0.000000 0.000000 9.932623 0.030862 2.326883 0.008366 1.506684 -4.361703 8.799112 -5.098913 -0.108554 38.596900 -78.280470 -25.912730 -3.476234 -13.949458 -0.837227 0.000000 0.000000 0.000000 10.244199 0.138272 3.141770 -9.679601 -1.754125 6.133681 4.952172 2.076437 2.333187 5.107837 32.699138 68.498383 -3.707273 20.519645 -6.957439 0.000000 0.000000 0.000000 
-2.020503 98.679848 -7.577719 0.000000 0.000000 0.000000 3.118677 -84.194745 4.268139 -19.578867 20.610229 14.325434 26.721840 -6.467381 -0.172028 -6.316124 2.892732 -7.926069 -2.980087 -0.239730 -1.658248 0.000000 0.000000 0.000000 4.809346 -82.139677 4.889729 -14.872360 -14.033436 -9.202725 25.381849 9.744379 -3.833881 -9.313939 -6.006410 11.299496 4.252918 -0.023863 -27.377695 0.000000 0.000000 0.000000 -16.139045 -81.738131 -15.088841 -5.398242 3.687463 2.850256 9.034256 -0.565730 2.114588 0.002279 -0.167663 0.078860 0.000000 0.000000 0.000000 10.770568 1.596699 3.079470 -5.367691 11.585857 -2.807778 -5.960756 -36.793444 -9.375971 0.000000 0.000000 0.000000 9.968859 0.090560 2.387800 0.201292 1.388920 -4.169236 8.559867 -4.824335 -1.186113 43.411941 -78.376865 -21.142176 -3.319107 -14.574751 -0.670122 0.000000 0.000000 0.000000 10.105310 0.186555 3.172335 -9.483787 -1.574780 5.625931 5.414623 2.259775 2.102159 5.030506 32.246535 69.034204 -3.004935 20.971179 -7.477914 0.000000 0.000000 0.000000 
-2.016963 98.849602 -7.320238 0.000000 0.000000 0.000000 3.830661 -84.407211 4.989236 -19.809169 19.835289 14.298811 26.755400 -6.445953 -0.255767 -5.644891 3.495631 -7.974967 -3.570809 -0.190396 -1.879773 0.000000 0.000000 0.000000 5.764206 -82.365675 5.786166 -14.626980 -14.281135 -9.048416 25.142282 9.577208 -3.947445 -9.180960 -5.771550 11.527717 4.098846 0.019050 -26.778173 0.000000 0.000000 0.000000 -14.646091 -81.928754 -13.612520 -4.902744 3.517117 2.822811 8.466301 -0.483592 2.037194 0.021375 -0.222506 0.062422 0.000000 0.000000 0.000000 10.673730 1.726377 3.023743 -5.232755 11.730105 -2.613482 -7.057124 -36.222242 -9.916318 0.000000 0.000000 0.000000 9.968004 0.184339 2.431544 0.488006 1.405803 -3.972021 8.014592 -4.181178 -2.293054 50.647314 -78.368477 -14.014366 -2.770711 -15.365545 -0.171621 0.000000 0.000000 0.000000 9.904333 0.243652 3.166036 -9.211130 -1.228306 5.077657 5.842704 2.277157 2.069050 4.790658 31.331956 69.950727 -1.875152 21.860458 -8.332332 0.000000 0.000000 0.000000 
-1.875072 99.008202 -7.095240 0.000000 0.000000 0.000000 5.171342 -84.664136 6.330254 -20.294990 19.158071 14.395612 26.903850 -6.500884 -0.408122 -4.846706 4.122957 -8.310491 -4.089271 -0.171936 -1.888161 0.000000 0.000000 0.000000 6.807269 -82.626130 6.822366 -14.437456 -14.611045 -8.911397 24.825825 9.364316 -4.057706 -9.026387 -5.484604 11.802214 4.011018 0.085904 -26.116994 0.000000 0.000000 0.000000 -12.673990 -82.111086 -11.693533 -4.296096 3.336651 2.755776 7.870202 -0.374121 1.936769 0.069252 -0.291267 0.040746 0.000000 0.000000 0.000000 10.528884 1.860432 2.986146 -5.089453 11.915416 -2.390761 -8.251923 -35.500065 -10.432294 0.000000 0.000000 0.000000 9.902273 0.302120 2.462439 0.810726 1.598827 -3.892379 7.188491 -3.613602 -3.284044 58.425807 -78.255847 -6.261358 -2.035340 -16.193590 0.457916 0.000000 0.000000 0.000000 9.639740 0.310800 3.160597 -8.905039 -0.718386 4.662662 6.062788 2.249737 2.130189 4.427404 30.046859 70.972175 -0.447449 22.987341 -9.392151 0.000000 0.000000 0.000000 
-1.586268 99.154549 -6.859304 0.000000 0.000000 0.000000 6.503866 -84.881855 7.636105 -20.756634 18.561650 14.538136 27.000633 -6.548944 -0.687093 -3.985910 4.801620 -8.795056 -4.473044 -0.206193 -1.566380 0.000000 0.000000 0.000000 7.538996 -82.872912 7.549853 -14.383695 -14.960028 -8.818906 24.492742 9.080426 -4.131157 -8.841233 -5.121584 11.990348 3.855686 0.243899 -25.573248 0.000000 0.000000 0.000000 -10.898587 -82.280468 -10.028622 -3.556675 3.162658 2.611621 7.285924 -0.233868 1.839508 0.114810 -0.343366 0.021407 0.000000 0.000000 0.000000 10.334244 1.987004 2.985735 -5.041423 12.098937 -2.156890 -9.605637 -34.646377 -10.961105 0.000000 0.000000 0.000000 9.718514 0.436254 2.471561 1.101910 1.959367 -4.055634 6.354700 -3.539014 -3.957537 64.037688 -77.986547 -0.554675 -1.362310 -16.971251 0.998037 0.000000 0.000000 0.000000 9.296546 0.392643 3.170705 -8.613124 -0.078863 4.455554 6.137545 2.244660 2.347159 4.032384 28.458089 71.787460 1.066963 24.141418 -10.482180 0.000000 0.000000 0.000000 
